<svg xmlns="http://www.w3.org/2000/svg" width="25" height="24" viewBox="0 0 25 24" fill="none"><path d="M12.5 4.8C10.5904 4.8 8.75909 5.55857 7.40883 6.90883C6.05857 8.25909 5.3 10.0904 5.3 12H8C8.47739 12 8.93523 12.1896 9.27279 12.5272C9.61036 12.8648 9.8 13.3226 9.8 13.8V18.3C9.8 18.7774 9.61036 19.2352 9.27279 19.5728C8.93523 19.9104 8.47739 20.1 8 20.1H5.3C4.82261 20.1 4.36477 19.9104 4.02721 19.5728C3.68964 19.2352 3.5 18.7774 3.5 18.3V12C3.5 7.0293 7.5293 3 12.5 3C17.4707 3 21.5 7.0293 21.5 12V18.3C21.5 18.7774 21.3104 19.2352 20.9728 19.5728C20.6352 19.9104 20.1774 20.1 19.7 20.1H17C16.5226 20.1 16.0648 19.9104 15.7272 19.5728C15.3896 19.2352 15.2 18.7774 15.2 18.3V13.8C15.2 13.3226 15.3896 12.8648 15.7272 12.5272C16.0648 12.1896 16.5226 12 17 12H19.7C19.7 10.0904 18.9414 8.25909 17.5912 6.90883C16.2409 5.55857 14.4096 4.8 12.5 4.8ZM5.3 13.8V18.3H8V13.8H5.3ZM17 13.8V18.3H19.7V13.8H17Z" fill="#0E121B"></path></svg>