<svg xmlns="http://www.w3.org/2000/svg" width="24" height="24" viewBox="0 0 24 24" fill="none"><path d="M5.2499 10.6499C4.5074 10.6499 3.8999 11.2574 3.8999 11.9999C3.8999 12.7424 4.5074 13.3499 5.2499 13.3499C5.9924 13.3499 6.5999 12.7424 6.5999 11.9999C6.5999 11.2574 5.9924 10.6499 5.2499 10.6499ZM18.7499 10.6499C18.0074 10.6499 17.3999 11.2574 17.3999 11.9999C17.3999 12.7424 18.0074 13.3499 18.7499 13.3499C19.4924 13.3499 20.0999 12.7424 20.0999 11.9999C20.0999 11.2574 19.4924 10.6499 18.7499 10.6499ZM11.9999 10.6499C11.2574 10.6499 10.6499 11.2574 10.6499 11.9999C10.6499 12.7424 11.2574 13.3499 11.9999 13.3499C12.7424 13.3499 13.3499 12.7424 13.3499 11.9999C13.3499 11.2574 12.7424 10.6499 11.9999 10.6499Z" fill="#0E121B"></path></svg>