<svg xmlns="http://www.w3.org/2000/svg" width="108" height="20" viewBox="0 0 108 20" fill="none"><path d="M18.75 7.69221L12.5925 6.95272L9.99671 1.25L7.40096 6.95272L1.25 7.69221L5.7975 11.9626L4.59491 18.125L9.99671 15.0538L15.4051 18.125L14.2025 11.9626L18.75 7.69221Z" fill="#F6B51E"></path><path d="M40.75 7.69221L34.5925 6.95272L31.9967 1.25L29.401 6.95272L23.25 7.69221L27.7975 11.9626L26.5949 18.125L31.9967 15.0538L37.4051 18.125L36.2025 11.9626L40.75 7.69221Z" fill="#F6B51E"></path><path d="M62.75 7.69221L56.5925 6.95272L53.9967 1.25L51.401 6.95272L45.25 7.69221L49.7975 11.9626L48.5949 18.125L53.9967 15.0538L59.4051 18.125L58.2025 11.9626L62.75 7.69221Z" fill="#F6B51E"></path><path d="M84.75 7.69221L78.5925 6.95272L75.9967 1.25L73.401 6.95272L67.25 7.69221L71.7975 11.9626L70.5949 18.125L75.9967 15.0538L81.4051 18.125L80.2025 11.9626L84.75 7.69221Z" fill="#F6B51E"></path><path d="M106.75 7.69476L100.592 6.95497L97.9967 1.25L95.401 6.95497L89.25 7.69476L93.7975 11.9602L92.5883 18.125L97.9967 15.0526L103.405 18.125L102.196 11.9602L106.743 7.69476H106.75ZM98.0033 13.533V4.43572L99.7119 8.19461L103.767 8.68113L100.77 11.4936L101.565 15.5524L98.0033 13.533Z" fill="#F6B51E"></path></svg>